<?xml version="1.0"?>
<svg xmlns="http://www.w3.org/2000/svg" height="512px" viewBox="0 0 64 64" width="512px" class=""><g><g id="Graphic_Design-Sketch-Ruler-Graphic_Tablet-Blueprint" data-name="Graphic Design-Sketch-Ruler-Graphic Tablet-Blueprint"><path d="m61.748 11.336-8-9a1 1 0 0 0 -.748-.336h-26a5.006 5.006 0 0 0 -5 5v23h2v-23a3 3 0 0 1 3-3h25v6a3 3 0 0 0 3 3h5v34a3 3 0 0 1 -3 3h-9v2h9a5.006 5.006 0 0 0 5-5v-35a1 1 0 0 0 -.252-.664zm-7.748-1.336v-4.37l4.773 5.37h-3.773a1 1 0 0 1 -1-1z" data-original="#000000" class="active-path" data-old_color="#000000" fill="#F3C333"/><path d="m43 32h-25v-29a1 1 0 0 0 -1-1h-8a1 1 0 0 0 -1 1v29h-3a3.009 3.009 0 0 0 -3 3v24a3.009 3.009 0 0 0 3 3h38a3.009 3.009 0 0 0 3-3v-24a3.009 3.009 0 0 0 -3-3zm-33-28h6v5h-4v2h4v2h-2v2h2v2h-4v2h4v2h-2v2h2v2h-4v2h4v5h-6zm34 55a1 1 0 0 1 -1 1h-38a1 1 0 0 1 -1-1v-24a1 1 0 0 1 1-1h38a1 1 0 0 1 1 1z" data-original="#000000" class="active-path" data-old_color="#000000" fill="#F3C333"/><path d="m9 44a3 3 0 1 0 3 3 3 3 0 0 0 -3-3zm0 4a1 1 0 1 1 1-1 1 1 0 0 1 -1 1z" data-original="#000000" class="active-path" data-old_color="#000000" fill="#F3C333"/><path d="m7 40h4v2h-4z" data-original="#000000" class="active-path" data-old_color="#000000" fill="#F3C333"/><path d="m7 36h4v2h-4z" data-original="#000000" class="active-path" data-old_color="#000000" fill="#F3C333"/><path d="m7 52h4v2h-4z" data-original="#000000" class="active-path" data-old_color="#000000" fill="#F3C333"/><path d="m7 56h4v2h-4z" data-original="#000000" class="active-path" data-old_color="#000000" fill="#F3C333"/><path d="m49 10h-20a1 1 0 0 0 -1 1v16a1 1 0 0 0 1 1h20a1 1 0 0 0 1-1v-16a1 1 0 0 0 -1-1zm-13.92 16 1.92-2.4 1.92 2.4zm6.4 0-1.28-1.6 2.8-3.73 4 5.33zm6.52-2-4.2-5.6a1 1 0 0 0 -1.6 0l-3.29 4.39-1.13-1.41a1.025 1.025 0 0 0 -1.56 0l-3.7 4.62h-2.52v-14h18z" data-original="#000000" class="active-path" data-old_color="#000000" fill="#F3C333"/><circle cx="35" cy="17" r="2" data-original="#000000" class="active-path" data-old_color="#000000" fill="#F3C333"/><path d="m50 32h6v2h-6z" data-original="#000000" class="active-path" data-old_color="#000000" fill="#F3C333"/><path d="m50 36h6v2h-6z" data-original="#000000" class="active-path" data-old_color="#000000" fill="#F3C333"/><path d="m50 40h6v2h-6z" data-original="#000000" class="active-path" data-old_color="#000000" fill="#F3C333"/><path d="m50 44h6v2h-6z" data-original="#000000" class="active-path" data-old_color="#000000" fill="#F3C333"/><path d="m39.04 38.011a1 1 0 0 0 -1.414 0l-13.435 13.434a1.006 1.006 0 0 0 -.242.391l-.707 2.121a1 1 0 0 0 .241 1.023l-1.414 1.42 1.414 1.414 1.417-1.414a1 1 0 0 0 .707.292.981.981 0 0 0 .316-.051l2.121-.708a1 1 0 0 0 .391-.241l13.433-13.439a1 1 0 0 0 0-1.414zm-11.854 16.1-1.311.438-.541-.549.438-1.312 9.733-9.732 1.414 1.414zm11.147-11.151-1.414-1.414 1.414-1.414 1.414 1.414z" data-original="#000000" class="active-path" data-old_color="#000000" fill="#F3C333"/></g></g> </svg>
