<?xml version="1.0"?>
<svg xmlns="http://www.w3.org/2000/svg" height="512px" viewBox="0 0 64 64" width="512px"><g><g id="SEO-analysis-graph-smartphone-present"><path d="m58 16h-6a1 1 0 0 0 -1 1v.73a19.826 19.826 0 0 0 -13-5.7v-5.03a5 5 0 0 0 -5-5h-26a5 5 0 0 0 -5 5v50a5 5 0 0 0 5 5h26a5 5 0 0 0 5-5v-5.04a19.9 19.9 0 0 0 17.71-12.96h2.29a1 1 0 0 0 1-1v-21a1 1 0 0 0 -1-1zm-22 37h-6v2h6v2a3.009 3.009 0 0 1 -3 3h-26a3.009 3.009 0 0 1 -3-3v-2h24v-2h-24v-46a3.009 3.009 0 0 1 3-3h26a3.009 3.009 0 0 1 3 3v5.05a19.974 19.974 0 0 0 0 39.9zm1-3a18 18 0 1 1 14-29.29v3.56a16.014 16.014 0 1 0 .45 14.55 1.03 1.03 0 0 0 .55.18h1.58a17.962 17.962 0 0 1 -16.58 11zm3-30a1 1 0 0 0 -1 1v17a1 1 0 0 0 1 1h6a1 1 0 0 0 1-1v-15.78a14.166 14.166 0 1 1 -2.83-2.22zm5 2v15h-4v-15zm12 15h-4v-19h4z" data-original="#000000" class="active-path" data-old_color="#000000" fill="#F3C333"/><path d="m34 23h-6a1 1 0 0 0 -1 1v14a1 1 0 0 0 1 1h6a1 1 0 0 0 1-1v-14a1 1 0 0 0 -1-1zm-1 14h-4v-12h4z" data-original="#000000" class="active-path" data-old_color="#000000" fill="#F3C333"/><path d="m50 2h12v2h-12z" data-original="#000000" class="active-path" data-old_color="#000000" fill="#F3C333"/><path d="m50 6h12v2h-12z" data-original="#000000" class="active-path" data-old_color="#000000" fill="#F3C333"/><path d="m46 2h2v2h-2z" data-original="#000000" class="active-path" data-old_color="#000000" fill="#F3C333"/><path d="m46 6h2v2h-2z" data-original="#000000" class="active-path" data-old_color="#000000" fill="#F3C333"/><path d="m50 10h12v2h-12z" data-original="#000000" class="active-path" data-old_color="#000000" fill="#F3C333"/><path d="m46 10h2v2h-2z" data-original="#000000" class="active-path" data-old_color="#000000" fill="#F3C333"/><path d="m50 52h12v2h-12z" data-original="#000000" class="active-path" data-old_color="#000000" fill="#F3C333"/><path d="m50 56h12v2h-12z" data-original="#000000" class="active-path" data-old_color="#000000" fill="#F3C333"/><path d="m46 52h2v2h-2z" data-original="#000000" class="active-path" data-old_color="#000000" fill="#F3C333"/><path d="m46 56h2v2h-2z" data-original="#000000" class="active-path" data-old_color="#000000" fill="#F3C333"/><path d="m50 60h12v2h-12z" data-original="#000000" class="active-path" data-old_color="#000000" fill="#F3C333"/><path d="m46 60h2v2h-2z" data-original="#000000" class="active-path" data-old_color="#000000" fill="#F3C333"/><path d="m6 7v4h2v-3h3v-2h-4a1 1 0 0 0 -1 1z" data-original="#000000" class="active-path" data-old_color="#000000" fill="#F3C333"/><path d="m6 13h2v2h-2z" data-original="#000000" class="active-path" data-old_color="#000000" fill="#F3C333"/></g></g> </svg>
